<?xml version="1.0" standalone="no"?><svg xmlns:xlink="http://www.w3.org/1999/xlink" xmlns="http://www.w3.org/2000/svg" viewBox="0 0 600 300" preserveAspectRatio="xMaxYMax slice"><g transform="scale(0.5291005291005291)"><rect x="0" y="0" width="1134" height="567" fill="#ffffff"/><polygon points="14.18,14.18 127.58000000000001,14.18 14.18,127.58000000000001" fill="#d1e1df"/><polygon points="155.93,14.18 269.33000000000004,14.18 269.33000000000004,127.58000000000001" fill="#ffd471"/><polygon points="297.68,14.18 411.08000000000004,127.58000000000001 297.68,127.58000000000001" fill="#dde6e6"/><polygon points="439.43,14.18 552.83,14.18 439.43,127.58000000000001" fill="#f2f6f6"/><polygon points="694.5699999999999,14.18 694.5699999999999,127.58000000000001 581.17,127.58000000000001" fill="#9abeb9"/><polygon points="722.93,14.18 836.3299999999999,14.18 836.3299999999999,127.58000000000001" fill="#92b9b3"/><polygon points="864.68,14.18 978.0799999999999,127.58000000000001 864.68,127.58000000000001" fill="#e1ecea"/><polygon points="1119.83,14.18 1119.83,127.58000000000001 1006.43,127.58000000000001" fill="#518f86"/><polygon points="14.18,155.93 127.58000000000001,155.93 127.58000000000001,269.33000000000004" fill="#2d796d"/><polygon points="155.93,155.93 269.33000000000004,155.93 269.33000000000004,269.33000000000004" fill="#d1dddd"/><polygon points="297.68,155.93 411.08000000000004,269.33000000000004 297.68,269.33000000000004" fill="#81a3a3"/><polygon points="552.83,155.93 552.83,269.33000000000004 439.43,269.33000000000004" fill="#fff6e0"/><polygon points="581.17,155.93 694.5699999999999,155.93 694.5699999999999,269.33000000000004" fill="#bcd4d0"/><polygon points="722.93,155.93 836.3299999999999,269.33000000000004 722.93,269.33000000000004" fill="#80aea7"/><polygon points="978.0799999999999,155.93 978.0799999999999,269.33000000000004 864.68,269.33000000000004" fill="#aac9c4"/><polygon points="1006.43,155.93 1119.83,155.93 1119.83,269.33000000000004" fill="#91b9b3"/><polygon points="127.58000000000001,297.68 127.58000000000001,411.08000000000004 14.18,411.08000000000004" fill="#d0e1de"/><polygon points="155.93,297.68 269.33000000000004,297.68 269.33000000000004,411.08000000000004" fill="#dfe7e7"/><polygon points="411.08000000000004,297.68 411.08000000000004,411.08000000000004 297.68,411.08000000000004" fill="#dfeae8"/><polygon points="439.43,297.68 552.83,411.08000000000004 439.43,411.08000000000004" fill="#dde6e6"/><polygon points="581.17,297.68 694.5699999999999,297.68 694.5699999999999,411.08000000000004" fill="#cfe1de"/><polygon points="722.93,297.68 836.3299999999999,297.68 836.3299999999999,411.08000000000004" fill="#387f74"/><polygon points="864.68,297.68 978.0799999999999,297.68 864.68,411.08000000000004" fill="#cfe0de"/><polygon points="1119.83,297.68 1119.83,411.08000000000004 1006.43,411.08000000000004" fill="#689f96"/><polygon points="14.18,439.43 127.58000000000001,552.83 14.18,552.83" fill="#cddfdc"/><polygon points="155.93,439.43 269.33000000000004,439.43 155.93,552.83" fill="#619a91"/><polygon points="297.68,439.43 411.08000000000004,439.43 411.08000000000004,552.83" fill="#a3bbbc"/><polygon points="552.83,439.43 552.83,552.83 439.43,552.83" fill="#57938a"/><polygon points="581.17,439.43 694.5699999999999,552.83 581.17,552.83" fill="#678f90"/><polygon points="722.93,439.43 836.3299999999999,439.43 722.93,552.83" fill="#cbdedb"/><polygon points="864.68,439.43 978.0799999999999,439.43 978.0799999999999,552.83" fill="#407373"/><polygon points="1006.43,439.43 1119.83,439.43 1006.43,552.83" fill="#d0dddd"/></g></svg>