<?xml version="1.0" standalone="no"?><svg xmlns:xlink="http://www.w3.org/1999/xlink" xmlns="http://www.w3.org/2000/svg" viewBox="0 0 600 300" preserveAspectRatio="xMaxYMax slice"><g transform="scale(0.5291005291005291)"><rect x="0" y="0" width="1134" height="567" fill="#fafafa"/><path d="M 14.18 14.18 A 113.4 113.4 0 0 1  127.58000000000001 127.58000000000001 L 14.18 14.18 A 113.4 113.4 0 0 0 127.58000000000001 127.58000000000001" fill="#f1f4f4"/><path d="M 155.93 127.58000000000001 A 113.4 113.4 0 0 1  269.33000000000004 14.18 L 269.33000000000004 127.58000000000001" fill="#6ca198"/><path d="M 297.68 127.58000000000001 A 113.4 113.4 0 0 0 411.08000000000004 14.18 L 297.68 14.18" fill="#f1f4f4"/><rect x="439.43" y="14.18" width="113.4" height="113.4" fill="#658e8e"/><polygon points="581.17,14.18 694.5699999999999,14.18 581.17,127.58000000000001" fill="#73a59d"/><path d="M 722.93 14.18 A 113.4 113.4 0 0 0 836.3299999999999 127.58000000000001 L 836.3299999999999 14.18" fill="#ffcb52"/><path d="M 864.68 14.18 A 113.4 113.4 0 0 1  978.0799999999999 127.58000000000001 L 864.68 14.18 A 113.4 113.4 0 0 0 978.0799999999999 127.58000000000001" fill="#abc8c4"/><rect x="1006.43" y="14.18" width="113.4" height="113.4" fill="#faf7ee"/><polygon points="14.18,155.93 127.58000000000001,155.93 14.18,269.33000000000004" fill="#fddb8c"/><rect x="155.93" y="155.93" width="113.4" height="113.4" fill="#cfdfdc"/><path d="M 297.68 155.93 A 113.4 113.4 0 0 1 411.08000000000004 269.33000000000004 L 297.68 269.33000000000004" fill="#90adad"/><rect x="439.43" y="155.93" width="113.4" height="113.4" fill="#fce6b3"/><polygon points="694.5699999999999,155.93 694.5699999999999,269.33000000000004 581.17,269.33000000000004" fill="#c2d1d1"/><polygon points="722.93,155.93 836.3299999999999,155.93 722.93,269.33000000000004" fill="#d7e4e2"/><rect x="864.68" y="155.93" width="113.4" height="113.4" fill="#e2e8e8"/><polygon points="1119.83,155.93 1119.83,269.33000000000004 1006.43,269.33000000000004" fill="#d8e2e2"/><rect x="14.18" y="297.68" width="113.4" height="113.4" fill="#c2d7d3"/><polygon points="155.93,297.68 269.33000000000004,411.08000000000004 155.93,411.08000000000004" fill="#44877d"/><rect x="297.68" y="297.68" width="113.4" height="113.4" fill="#a4bcbc"/><polygon points="552.83,297.68 552.83,411.08000000000004 439.43,411.08000000000004" fill="#90b7b1"/><path d="M 581.17 297.68 A 113.4 113.4 0 0 1  694.5699999999999 411.08000000000004 L 581.17 297.68 A 113.4 113.4 0 0 0 694.5699999999999 411.08000000000004" fill="#175455"/><path d="M 722.93 411.08000000000004 A 113.4 113.4 0 0 1  836.3299999999999 297.68 L 836.3299999999999 411.08000000000004" fill="#ffcc57"/><path d="M 864.68 297.68 A 113.4 113.4 0 0 1 978.0799999999999 411.08000000000004 L 864.68 411.08000000000004" fill="#fed67a"/><polygon points="1006.43,297.68 1119.83,411.08000000000004 1006.43,411.08000000000004" fill="#acc2c2"/><path d="M 14.18 552.83 A 113.4 113.4 0 0 1  127.58000000000001 439.43 L 14.18 552.83 A 113.4 113.4 0 0 0 127.58000000000001 439.43" fill="#629a91"/><path d="M 155.93 439.43 A 113.4 113.4 0 0 1  269.33000000000004 552.83 L 155.93 439.43 A 113.4 113.4 0 0 0 269.33000000000004 552.83" fill="#d4e2e0"/><path d="M 297.68 439.43 A 113.4 113.4 0 0 0 411.08000000000004 552.83 L 411.08000000000004 439.43" fill="#609990"/><polygon points="439.43,439.43 552.83,439.43 439.43,552.83" fill="#427475"/><polygon points="581.17,439.43 694.5699999999999,439.43 581.17,552.83" fill="#135252"/><rect x="722.93" y="439.43" width="113.4" height="113.4" fill="#73a59d"/><rect x="864.68" y="439.43" width="113.4" height="113.4" fill="#fed370"/><polygon points="1119.83,439.43 1119.83,552.83 1006.43,552.83" fill="#6da199"/></g></svg>